<svg xmlns="http://www.w3.org/2000/svg" width="326.601" height="100"><title>Happy New Year</title><path d="M25.307 15.004a1.978 1.978 0 1 1-3.957 0 1.978 1.978 0 1 1 3.957 0z" color="#000" fill="white" overflow="visible"/><path d="M29.707 5.03c-4.21.026-10.084 1.596-12.24 5.525-.725 1.325-.955 2.46-.63 4.352.733 1.923 2.162 3.165 3.916 3.34 1.814.182 3.95-.765 4.403-2.635-1.655.41-2.795 1.978-5.173.76-5.538-6.555 8.394-12.058 17.653-7.153-.7.163-1.31.445-2.05.862-3.327 1.897-5.27 4.1-6.078 8.12-.41 3.03.654 6.456 4.57 8.095 5.934 2.304 10.84-.36 12.828-5.224 1.317-3.965-.21-8.535-3.41-11.473 4.726-.144 7.846 1.317 9.93 3.697 6.72 9.626 2.452 22.162 1.404 33.475-3.048.358-7.765 1.712-8.61 5.205.022.792.427 1.236.988.784 2.452-2.762 5.574-3.14 7.32-3.21-5.042 15.5-1.66 31.322 3.23 40.462-24.43 11.44-52.612-3.9-55.447-25.6-.133-11.626 6.056-25.265 17.923-28.34 6.604-2.28 12.177-2.65 16.79 1.606 3.43 4.737.795 9.7-4.272 9.363a1.98 1.98 0 1 0-3.187 1.326c.452.286.893.438 1.346.42 9.954 1.184 11.43-8.04 7.487-12.17-5.95-4.89-12.517-4.06-18.753-2.107C6.762 38.482-.066 51.386 0 65.07c.473 12.463 9.313 22.697 19.82 27.97 13.123 6.742 25.848 3.746 38.968-1.182 1.274 2.633 4.46 5.098 7.548 6.046 3.15.788 5.87.124 7.057-2.84.635-1.635.153-3.218-1.123-4.732-2.273-2.614-6.58-2.82-11.325-1.308-6.598-13.21-6.564-22.636-1.962-39.515 4.465.024 9.093 1.81 13.125 2.244.046 13.96-.286 28.094 7.743 38.963 3.862 6.172 11.283 7.546 16.894 6.686 4.165 3.095 14.51 3.96 18.1-.41 6.215 4.377 12.335 3.11 16.534-1.423 4.348 4.35 11.88 5.413 17.904-.056 3.175-2.65 5.256-5.983 5.604-6.806l-.023-.014c5.437-10.64 3.022-31.18 3.36-33.196 1.318-1.487 2.346-6.894.74-10.666-.603-1.756-2.206-.66-2.954.594-1.1 1.67-1.11 4.98-.702 10.17.364.545-3.826 2.46-5.65.325-1.668-1.685.35-4.46-.483-8.397-.25-1.73-1.714-2.92-3.23-4.087-.71.105-1.48.148-1.075 1.508 1.797.933 1.676 1.67 2.152 2.472 1.405 3.538-2.613 9.026 2.88 10.964 1.785.516 3.72-.015 5.676-1.332.2 14.603.767 23.35-2.803 30.565l-.018-.01c-2.634 5.267-8.584 11.347-16.884 8.292-1.203-.538-2.227-1.246-3.052-2.088.055-.074.11-.147.163-.222 2.644-3.88 3.828-9.152 3.962-14.606 2.41-.34 5.056.606 7.45 2.533 2.203 2.632.433 7.456-2.077 6.973.013-.09.023-.184.023-.28a1.98 1.98 0 0 0-3.958 0 1.98 1.98 0 0 0 2.51 1.905c5.922.788 8.813-8.625.498-12.37a12.063 12.063 0 0 0-4.44-.52c-.07-4.457-.805-8.952-1.99-12.832l-.028.005c-.65-3.243-1.386-6.51-2.01-9.864-.44-3.465-.6-5.516.61-6.802 3.258-3.327 8.736-2.536 9.723 2.575 1.408 4.533-5.05 8.746-6.62 4.106.282-.907.012-2.098-1.383-1.83-.446.127-.826.518-.807 1.175.858 6.345 10.516 6.352 10.805-2.57-.614-4.98-5.84-10.608-13.028-6.974-1.355-1.333-2.228.89-2.538 1.982-.964 5.507.012 10.457 2.25 17.547.12.394.237.782.348 1.168l-.06.014c1.065 4.19 1.88 8.512 2.264 12.768-.435.135-.865.296-1.294.492-2.567 1.2-4.09 2.95-4.802 5.02-1.206 4.14-.374 7.93 1.647 10.787-3.61 4.01-8.41 4.542-13.524 1.293 1.182-2.305 3.358-7.136 3.507-15.31.002-.115 0-.23 0-.344 1.067.426 2.063 1.28 2.877 2.64.823 1.65 1.026 3.707.52 5.613a1.975 1.975 0 0 0-2.686 1.847 1.98 1.98 0 0 0 3.958.023c1.377-3.015 1.186-6.576-.762-9.233-1.11-1.466-2.462-2.448-3.958-2.97-.417-7.564-3.15-15.36-4.566-22.974-.44-3.464-.6-5.516.608-6.802 3.26-3.327 8.737-2.536 9.724 2.575 1.408 4.533-5.05 8.74-6.62 4.1.282-.905.008-2.096-1.388-1.827-.446.126-.82.517-.802 1.173.858 6.346 10.517 6.353 10.805-2.57-.613-4.98-5.838-10.607-13.027-6.973-1.355-1.334-2.228.894-2.537 1.986-1.016 3.297-.63 6.53.338 10.182-.457.342-.933.588-1.43.798v1.833c.65-.382 1.242-.812 1.815-1.257.55 1.88 1.217 3.882 1.906 6.064 1.573 5.165 2.392 9.554 2.728 13.25-1.57-.045-3.222.333-4.867 1.118-6.506 3.21-6.964 11.962-.413 17.333-4.47 3.196-8.27 2.57-12.424.47 4.207-3.58 6.114-9.476 3.614-14.127-1.874-3.354-5.613-5.322-9.182-4.524-4.603 1.534-6.154 4.557-6.184 8.777.027 4.862 2.84 7.606 5.725 9.66-17.495.567-19.4-24.953-17.806-43.91 2.534-.15 5.754-.002 8.764-1.437 1.65-.786 2.392-2.955 2.306-3.865-.06-.53-.36-2.968-1.493-2.603-.306 3.102-1.89 6.048-9.27 4.482-.05-5.493 3.718-15.445 4.857-24.654 3.068.967 6.252 1.822 9.734 2.375 14.818 2.992 30.564-9.492 39.673-9.567 10.487-.86 22.217 1.5 19.8 14.42-2.33 4.2-7.306 5.516-11.87 3.92-3.168-1.477-5.154-5.626-1.198-7.748.87-.43 1.837-.47 2.676.228-.58.345-.975.974-.975 1.698a1.98 1.98 0 1 0 2.793-1.8c-1.402-1.3-3.398-1.866-5.237-1.28-7.696 3.678-1.46 12.72 7.03 11.227 7.986-.74 11.053-7.204 8.248-14.577-.716-1.784-1.887-3.495-3.62-5.118-15.743-11.928-35.863 6.153-48.1 6.997-6.428.165-12.548-1.887-18.726-3.04.333-4.55-.135-8.803-2.218-12.1-1.055-1.485-2.516-2.404-4.848-2.375-2.632.393-3.957 1.76-4.5 3.522-1.586 6.338 3.844 11.025 8.912 12.763L74.302 38.06l-2.04 10.805c-5.64-.764-6.674-1.792-12.866-2.204 1.265-11.403 4.597-25.38-2.594-34.527-3.16-3.885-8.104-6.03-15.82-4.208-2.717-.85-5.74-2.15-9.586-2.81a14.755 14.755 0 0 0-1.69-.085zM74.86 9.553c.378-.01.765.095 1.145.283 3.172 1.647 2.833 6.16 2.895 10.676-1.973-.9-4.054-2.05-6.027-5.595-.43-1.39-.51-2.452-.218-3.336.58-1.43 1.37-2.004 2.204-2.027zm-35.173.733c2.917 2.418 5.47 5.415 4.264 10.5-1.066 3.323-4.684 5.29-8.03 4.152-8.254-2.96-3.742-12.817 3.767-14.652zm118.74 37.506c.824 1.46.206 5.01-.59 5.595.015-2.84-.29-5.093.59-5.595zm-40.754 31.55c.392 9.266-2.388 13.49-3.007 14.22l.274.347-.39-.233a.71.71 0 0 0 .116-.116l-.023-.027a.654.654 0 0 0-.097.14l-.25-.15c-3.702-2.8-3.814-8.215-.887-11.672 1.222-1.41 2.737-2.31 4.263-2.51zm16.94.43c.12 4.267-.64 8.432-3.11 12.286-.953-1.712-1.267-3.775-.812-6.05.187-1.52.638-2.833 1.453-3.976.733-1.003 1.567-1.75 2.47-2.26zm-37.75.038c.08-.003.16 0 .238 0 .587.01 1.196.144 1.815.43 5.924 3.845 2.43 12.834-2.26 14.852-4.26-3.217-5.486-6.256-4.518-11.088.53-2.205 2.31-4.116 4.727-4.194zM66.56 90.364c1.74-.003 3.328.362 4.184 1.74.593.977.84 1.7.747 2.325-.897 5.056-7.17.527-9.325-3.43 1.364-.13 2.858-.633 4.394-.636z" color="#000" fill="white" overflow="visible"/><path d="M103.66 0c-4.796-.046-9.805 3.178-10.02 7.173-.56 4.544 3.807 7.84 10.434 7.697 7.506-.432 12.997-4.05 19.463-6.532 9.946-3.562 19.995-5.47 30.87 2.81 12.226 10.397 12.243 33.4 10.46 47.232-.39 26.887 7.075 41.338 25.414 41.338 12.48 0 16.643-7.226 18.11-8.467l-.01-.032c.297-.237.487-.593.487-.993 0-.714-.604-1.294-1.35-1.294-.746 0-1.35.58-1.35 1.295 0 .33.128.626.34.854-4.876 5.75-10.47 5.793-15.92 6.564-6.1-.564-9.752-1.682-12.155-3.08-15.212-11.36-9.063-40.635-7.785-49.324 1.78 5.384 3.837 7.215 6.463 11.483 2.44 4.438 5.064 7.29 7.54 8.885.986-.238 1.643-.76 1.22-2.208-2.087-3-2.5-5.02-2.743-8.217-.133-6.98-.244-13.606.636-20.02 1.957-14.347 5.927-22.505 18.16-28.68 6.192-2.847 10.435-3.5 16.284-1.676l.224-1.022c-6.98-2.683-14.73-.75-20.818 3.156-8.77 5.29-13.434 13.43-15.77 22.43-1.294 5.082-2.04 10.352-2.176 14.627-.12 4.46.15 9.194 1.18 14.383-10.555-14.2-10.96-29.272-17.066-39.483-6.148-10.28-14.294-16.613-29.2-15.004-11.498 1.066-19.506 9.414-29.675 9.748-3.545.11-6.188-.29-8.286-2.533-1.696-1.635-1.723-3.582-1.105-5.196 1.68-3.953 6.762-5.688 9.084-4.754 1.97 1.37 1.757 2.992.62 3.84a1.976 1.976 0 0 0-3.665 1.027 1.98 1.98 0 0 0 1.977 1.98c.466 0 .896-.166 1.234-.435 1.846-.904 3.717-3.093 2.436-5.512-.73-1.34-2-1.795-3.076-2.037-.155-.01-.31-.018-.464-.02zM299.705 35.854a1.978 1.978 0 1 1-3.957 0 1.978 1.978 0 1 1 3.957 0z" color="#000" fill="white" overflow="visible"/><path d="M190.158 38.987l.286.432c2.19-2.5 5.83-3.965 9.65-.43 3.508 3.57 4.334 6.633 4.612 9.31.424 4.075-.85 7.253.79 9.943 1.93 2.233 4.73 1.823 7.078 3.577l.533-.914c-1.24-2.188-1.718-4.69.38-6.315 2.83 2.233 1.923 4.465 2.588 6.697l1.217.61c8.038-7.007 4.16-14.366 5.216-18.406.61-2.34 4.107-7.14 8.862-2.34l.608-.836c-1.272-1.654-4.134-2.807-6.62-2.236-5.76 2.236-5.63 8.564-5.63 14.078.055 1.813-.8 4.336-2.13 5.554l-2.817-6.01c-.678-.436-1.4-.65-2.282-.077-1.415 2.938-2.362 3.618-1.598 6.674-5.3-1.74-3.082-5.66-3.793-9.845-.905-5.112-2.252-9.342-7.982-12.332-4.317-1.86-9.105 1.91-8.967 2.867z" color="#000" fill="white" overflow="visible"/><path d="M217.292 3.4l-.347 1.012c4.895 1.718 6.19 6.48 5.7 9.363-2.617.844-4.38 1.57-5.458 2.85-3.072 4.156 1.212 7.327 4.385 4.507 1.28-1.185 2.357-3.142 2.93-5.784 10.656 2.19 13.607 16.32 14.1 20.878 1.865 12.083 6.744 12.673 8.824 13.557 2.15.31 4.673-.093 6.672-1.828.565 10.423-.33 21.947-5.112 36.425-5.888-1.363-14.026-.225-15.874 5.112-.745 1.785-.577 5.467 5.165 5.06 5.64.05 8.926-2.734 11.41-6.563 4.437-7.74 7.858-26.567 6.99-41.112l-.32-1.72c2.7-5.236 4.96-10.855 5.382-18.08-.42-4.472.286-9.213-3.463-11.487-1.57-.935-3.02-.797-4.286 1.48-2.332 8.875-.998 16.97-.43 26.04-2.294 4.594-7.053 4.856-9.714.885-2.327-3.562-2.822-9.484-3.008-14.67-.118-2.982-.654-6.173-2.454-9.996-1.123-2.35-4.597-6.552-14.202-6.348-.36-5.43-2.8-8.454-6.89-9.58zm5.49 12.055c-.73 1.994-1.524 3.556-2.424 4.466-2.76 2.525-3.56-1.234-1.807-2.862 1.046-.936 2.678-1.44 4.23-1.603zm36.196 5.15c1.584 5.25.848 10.197-.56 15.055-.492 1.67-1.15 3.307-2.168 4.87-.272-6.98-.52-13.51.25-20.415.972-2.907 1.623-1.423 2.478.49zm-11.23 66.304c-2.253 3.925-7.11 6.123-9.916 4.567-2.636-1.624-.045-3.258 1.983-4.173 2.044-.9 4.818-1.027 7.934-.395zM112.323 59.28v-1.832c-.976.414-2.06.624-3.433.7-2.093-.11-2.89-1.593-3.65-2.584 2.506-10.536 1.87-18.554-6.682-22.22-1.57-.59-4.504-.92-6.115-.184-2.534 1.32-3.51 2.807-3.428 6.388-.04.158-.06.323-.06.492a1.98 1.98 0 1 0 1.735-1.967c.092-2.087 1.195-2.998 2.724-3.308 8.22-1.08 10.162 5.987 9.817 10.74-.975-2.164-3.198-2.346-5.697-1.967-1.897.31-3.454 1.59-4.01 3.313-.48 1.495-.695 3.316-.634 4.998.235 3.607 2.468 6.586 5.932 6.866 1.567.098 3.28-.393 5.044-1.628.993 1.52 2.653 3.136 4.927 3.29 1.48-.09 2.575-.533 3.53-1.096zM98.87 46.178c4.106.352 3.943 4.245 3.172 8.017-1.34 3.723-5.423 3.842-6.792.005-.7-2.913-.39-7.74 3.62-8.02zM293.438 54.435c-.008.952-2.06 2.83-3.433 2.906-2.093-.11-2.89-1.215-3.65-2.206 2.506-10.536 1.87-18.555-6.682-22.22-1.57-.59-4.505-.92-6.115-.185-2.534 1.32-3.51 2.807-3.43 6.388-.04.157-.06.322-.06.492a1.98 1.98 0 1 0 1.735-1.967c.092-2.087 1.196-3 2.725-3.308 8.22-1.08 10.162 5.987 9.817 10.74-.975-2.164-3.198-2.346-5.697-1.967-1.897.31-3.454 1.588-4.01 3.313-.48 1.494-.695 3.316-.635 4.997.237 3.607 2.47 6.586 5.934 6.867 1.567.098 3.28-.394 5.043-1.63 1.26 1.483 2.172 2.052 4.446 2.205 2.234 0 4.027-1.71 3.96-2.056.093-.786.052-1.58.052-2.37zm-13.454-8.687c4.107.35 3.944 4.244 3.173 8.017-1.34 3.723-5.423 3.84-6.792.005-.7-2.913-.392-7.74 3.62-8.022z" color="#000" fill="white" overflow="visible"/><path d="M260.19 45.11c-2.68 4.79-1.622 10.822 3.362 13.036 2.835 1.208 6.51.606 8.062-1.253 1.227-1.47 2.727-3.355 3.602-3.49l-.942-.22c-.75.193-2.336 2.367-3.534 3.165-3.34 2.224-7.568.376-8.858-3.293l3.923-1.36c4.29-1.955 4.505-5.945 2.44-8.216-2.676-2.833-6.26-.612-8.056 1.63zm6.97.86c.802 2.946-3.304 4.73-5.614 5.058-1.372-3.68 3.94-9.46 5.615-5.058zM302.957 42.362c-2.102.085-5.325 1.904-5.962 5.775l-1.29-3.874c-.483-.22-2.17-.29-2.26.97l1.077 13.343c1.375 1.387 4.72.196 4.95-1.076.164-1.696-1.028-4.566-1.034-7.317-.005-2.255.623-4.088 2.38-5.087 1.187-.703 2.604-.76 3.606.155.464.436.748 1.01.88 1.612a1.976 1.976 0 0 0 1.165 3.577c4.047-.6 1.283-8.09-3.513-8.078zM187.286 46.15c-2.68 4.793-1.62 10.824 3.364 13.04 2.585 1.1 5.48.67 7.444-.51.446-.27 1.567-1.056 2.34-1.937.952-1.087 1.16-1.45 2.076-2.16 1.127-.87 2.33-1.383 2.238-.997l.05-.886c-.874.236-2.288.92-5.026 3.482-.74.692-1.783 1.3-2.774 1.652-3.54 1.263-6.833-.365-8.02-3.737l3.924-1.36c4.292-1.955 4.505-5.945 2.442-8.215-2.677-2.833-6.262-.612-8.058 1.63zm6.973.862c.8 2.946-3.307 4.73-5.617 5.058-1.372-3.68 3.942-9.458 5.616-5.058z" color="#000" fill="white" overflow="visible"/><path d="M250.336 85.01c5.368 1.895 12.2 7.89 34.848 10.09 16.78.51 24.577-8.638 31.867-17.336 6.928-10.333 8.756-20.17 5.613-30.99-2.347-7.927-7.516-15.177-14.942-17.778-5.946-1.98-15.493-.81-15.635 5.507.176 2.436 2.45 3.204 4.09 1.507l2.393 1.614c-1.1.468-3.51 1.518-6.053.108-1.98-1.615-2.32-3.77-1.638-5.693 2.022-4.96 10.04-6.084 14.27-5.62 7.163.87 12.815 6.063 16.565 12.553 5.14 9.05 5.872 18.99 3.835 28.41-1.92 8.638-6.316 15.45-13.792 21.406-4.76 3.723-11.808 8.062-24.43 8.416-17.322-.78-29.316-5.255-38.227-9.885z" color="#000" fill="white" overflow="visible"/></svg>